<svg width="72" height="72" viewBox="0 0 72 72" fill="none" xmlns="http://www.w3.org/2000/svg">
<g clip-path="url(#clip0_206_25461)">
<path d="M46.5225 41.5006C46.4871 40.6641 46.2975 38.3361 46.2462 37.593C46.0106 34.2719 46.6465 31.9615 47.7784 30.477C48.9102 28.9925 51.7355 26.9076 54.1144 28.6879C55.2888 29.5684 55.7175 31.3522 54.1747 33.8034C52.6318 36.2547 53.0499 38.9578 53.514 41.409C55.7299 54.7024 46.1151 61.5191 39.9597 62.632C31.4236 64.1746 19.0082 60.3181 18.2696 45.0911L18.2926 45.4046L17.1554 29.3887C16.9924 27.0907 17.7205 24.6148 20.0161 24.3595C22.0815 24.1288 23.3073 26.6469 23.4702 28.945L24.1451 38.4418L23.5889 30.595L22.6908 17.9373C22.5226 15.5635 23.596 12.9661 26.0582 12.7337C28.5752 12.4959 29.8701 15.0475 30.0384 17.4213L31.0976 32.3031L29.7337 13.0964C29.5654 10.7227 31.0126 8.08475 33.101 7.8928C35.5756 7.6674 36.913 10.2067 37.0812 12.5805L38.4452 31.7872L37.54 18.9551C37.3717 16.5813 38.4522 13.9276 40.9073 13.7515C43.5183 13.5648 44.7193 16.0654 44.8875 18.4391L46.5243 41.4988L46.5225 41.5006Z" fill="#FCDBDB"/>
<path d="M36.3249 63.84C31.8469 63.84 27.5018 62.433 24.2054 59.8286C20.0533 56.5497 17.6957 51.4711 17.3875 45.144L16.2733 29.4521C16.0359 26.101 17.4672 23.759 19.9187 23.486C20.7566 23.3927 21.559 23.6269 22.2445 24.164L21.807 17.9989C21.605 15.162 22.9725 12.1402 25.9732 11.8567C27.0377 11.7563 28.0244 12.0522 28.8339 12.7143C28.8392 10.1134 30.4671 7.2483 33.0178 7.01409C34.0912 6.91548 35.0903 7.23069 35.9104 7.92098C37.06 8.89303 37.827 10.61 37.9634 12.5153L38.0856 14.2375C38.7658 13.4715 39.6834 12.9538 40.8418 12.871C41.9648 12.79 42.9904 13.1193 43.8053 13.8202C44.9159 14.7781 45.6315 16.4369 45.7697 18.374L46.6359 30.5844C46.7705 30.359 46.9175 30.146 47.0734 29.9417C48.5064 28.0645 51.8294 25.8721 54.6494 27.9817C56.0399 29.0225 56.8441 31.2219 54.9275 34.2683C53.6043 36.3709 53.9001 38.6707 54.3873 41.2452C54.3873 41.2523 54.389 41.2576 54.3908 41.2646C55.6803 49.0022 53.0216 54.1724 50.5647 57.1466C47.3674 61.0154 43.0737 62.9648 40.1226 63.4984C38.8615 63.7255 37.5896 63.8382 36.3284 63.8382L36.3249 63.84ZM19.1783 45.4504C19.5361 51.1471 21.598 55.5195 25.3071 58.4497C29.817 62.0121 35.7527 62.4982 39.802 61.7674C42.4449 61.2901 46.2993 59.5327 49.1919 56.0319C51.4167 53.3394 53.8187 48.6465 52.6407 41.5657C52.1058 38.7341 51.7657 35.9747 53.4219 33.3386C54.5095 31.6093 54.5697 30.1336 53.5795 29.394C51.5726 27.8919 49.1653 30.1143 48.4816 31.0123C47.394 32.4387 46.9246 34.6927 47.1265 37.5331C47.1407 37.7374 47.1655 38.0597 47.1956 38.44C47.2736 39.4561 47.3798 40.8455 47.4064 41.4671C47.4259 41.9478 47.0539 42.3564 46.5703 42.3828C46.0868 42.4092 45.6723 42.0465 45.6368 41.5657L44.0001 18.5061C43.8974 17.0533 43.389 15.803 42.6415 15.1585C42.1774 14.7588 41.6283 14.5862 40.9658 14.6337C39.1236 14.7658 38.2787 16.9282 38.4186 18.897L39.3238 31.7308C39.3574 32.2151 38.9908 32.6359 38.5019 32.6712C38.013 32.7046 37.5914 32.3401 37.556 31.8541L36.192 12.6474C36.0911 11.2263 35.542 9.93199 34.759 9.26987C34.2985 8.8807 33.7812 8.71869 33.1754 8.77328C31.7105 8.90711 30.4653 10.9798 30.6105 13.0383L31.9745 32.245C32.0081 32.7293 31.6415 33.1501 31.1526 33.1854C30.6655 33.2188 30.2403 32.8543 30.2067 32.37L29.1474 17.4882C29.0447 16.0495 28.5009 14.7535 27.7286 14.1019C27.2716 13.7163 26.749 13.5578 26.1344 13.6159C24.0424 13.8131 23.4525 16.2749 23.5677 17.8809L25.0237 38.3872C25.0574 38.8715 24.6907 39.2941 24.2018 39.3276C23.7129 39.361 23.2896 38.9965 23.2559 38.5105L22.581 29.0031C22.4765 27.5644 21.915 26.1909 21.1799 25.5833C20.8487 25.3086 20.498 25.1959 20.1083 25.2399C17.8728 25.4882 17.9862 28.6932 18.0322 29.3324L19.1464 45.0313C19.1464 45.0313 19.1464 45.033 19.1464 45.0348L19.1694 45.3482C19.1712 45.3835 19.173 45.4187 19.1694 45.4539L19.1783 45.4504Z" fill="black"/>
<path d="M46.4729 41.5006C46.4375 40.6641 46.248 38.3361 46.1966 37.593C45.961 34.2719 46.5969 31.9615 47.7288 30.477C48.8607 28.9925 51.686 26.9076 54.0649 28.6879C55.2393 29.5684 55.6679 31.3522 54.1251 33.8034C52.5823 36.2547 53.0003 38.9577 53.4644 41.409C55.6803 54.7024 46.0655 61.5191 39.9101 62.632" fill="#FCDBDB"/>
<path d="M40.0695 63.5001L39.7524 61.7674C42.3953 61.2901 46.2497 59.5327 49.1423 56.0319C51.3671 53.3394 53.7691 48.6447 52.5911 41.564C52.0562 38.7324 51.7161 35.9729 53.3723 33.3386C54.4599 31.6093 54.5201 30.1336 53.5299 29.394C51.523 27.8919 49.1158 30.1143 48.432 31.0123C47.3444 32.4387 46.875 34.6927 47.0769 37.5331C47.0911 37.7357 47.1159 38.0561 47.1442 38.433C47.2222 39.4508 47.3285 40.8437 47.355 41.4671L45.5855 41.5411C45.5607 40.9494 45.4544 39.5723 45.3782 38.5686C45.3499 38.1882 45.3251 37.8642 45.3091 37.6599C45.0736 34.3405 45.6492 31.7467 47.0203 29.9505C48.4533 28.0733 51.7763 25.8809 54.5963 27.9905C55.9868 29.0313 56.791 31.2307 54.8744 34.2771C53.5512 36.3797 53.847 38.6795 54.3341 41.254C54.3341 41.2611 54.3359 41.2664 54.3377 41.2734C55.6272 49.011 52.9684 54.1812 50.5116 57.1554C47.3143 61.0242 43.0206 62.9736 40.0695 63.5072V63.5001Z" fill="black"/>
<path d="M49.2178 14.917L18.8448 20.0512C14.2945 20.8204 11.233 25.111 12.0067 29.6345C12.7804 34.1581 17.0963 37.2016 21.6466 36.4325L52.0196 31.2983C56.5698 30.5291 59.6313 26.2385 58.8576 21.715C58.0839 17.1914 53.768 14.1479 49.2178 14.917Z" fill="#FFD400"/>
<path d="M20.2251 37.4328C18.3262 37.4328 16.477 36.8517 14.8969 35.737C12.8829 34.3176 11.5455 32.2027 11.1328 29.7832C10.7183 27.3636 11.2781 24.9283 12.7058 22.926C14.1335 20.9238 16.2608 19.5943 18.6947 19.184L49.0679 14.0509C54.0914 13.2021 58.8758 16.5743 59.7296 21.5701C60.5834 26.5659 57.1912 31.3205 52.1659 32.1693L21.7927 37.3025C21.2684 37.3905 20.7441 37.4345 20.2233 37.4345L20.2251 37.4328ZM50.6213 15.6797C50.2068 15.6797 49.787 15.715 49.3654 15.7854L18.9923 20.9186C17.0243 21.2514 15.3043 22.3256 14.1512 23.9439C12.9963 25.5622 12.5446 27.5309 12.8794 29.4874C13.2141 31.4438 14.2947 33.1537 15.9225 34.3C17.5504 35.4482 19.5307 35.8972 21.4987 35.5644L51.8719 30.4312C55.9336 29.7445 58.6756 25.9021 57.9866 21.8642C57.3684 18.2454 54.1994 15.6797 50.6249 15.6797H50.6213Z" fill="black"/>
<path d="M46.4729 41.5006C46.4375 40.6641 46.248 38.3361 46.1966 37.593C45.961 34.2719 46.5969 31.9615 47.7288 30.477C48.8607 28.9925 51.686 26.9076 54.0649 28.6879C55.2393 29.5684 55.6679 31.3522 54.1251 33.8035C52.5823 36.2547 53.0003 38.9578 53.4644 41.409C55.6803 54.7024 46.0655 61.5191 39.9101 62.632" fill="#FCDBDB"/>
<path d="M39.9101 63.5142C39.4903 63.5142 39.1183 63.2166 39.0404 62.7905C38.9536 62.3115 39.2724 61.8537 39.7524 61.7674C42.3953 61.2902 46.2497 59.5327 49.1423 56.0319C51.3671 53.3395 53.7691 48.6448 52.5911 41.564C52.0562 38.7324 51.7161 35.9729 53.3723 33.3386C54.4599 31.6093 54.5201 30.1336 53.5299 29.394C51.523 27.8919 49.1158 30.1143 48.432 31.0123C47.3444 32.4387 46.875 34.6927 47.0769 37.5331C47.0911 37.7357 47.1159 38.0562 47.1443 38.433C47.2222 39.4508 47.3285 40.8437 47.355 41.4671C47.3745 41.9531 46.9955 42.3634 46.5066 42.3828C46.0177 42.4022 45.605 42.0253 45.5855 41.5393C45.5607 40.9476 45.4544 39.5706 45.3782 38.5668C45.3499 38.1865 45.3251 37.8624 45.3091 37.6582C45.0736 34.3388 45.6492 31.7449 47.0203 29.9487C48.4533 28.0716 51.7763 25.8792 54.5963 27.9888C55.9868 29.0295 56.791 31.2289 54.8744 34.2754C53.5512 36.378 53.847 38.6778 54.3341 41.2523C54.3341 41.2593 54.3359 41.2646 54.3377 41.2716C55.6272 49.0093 52.9684 54.1794 50.5116 57.1537C47.3143 61.0225 43.0206 62.9719 40.0695 63.5054C40.0164 63.5142 39.9632 63.5195 39.9101 63.5195V63.5142Z" fill="black"/>
<path d="M35.4693 34.9164L39.3114 41.1801L46.6801 41.5833L41.8763 47.1515L43.7663 54.2446L36.9537 51.4218L30.754 55.4015L31.3492 48.0883L25.626 43.457L32.8052 41.7577L35.4693 34.9164Z" fill="#FFD400"/>
<path d="M30.754 56.282C30.5964 56.282 30.4387 56.2397 30.2988 56.157C30.01 55.9844 29.8435 55.6639 29.8701 55.3311L30.4263 48.4792L25.0645 44.1385C24.8023 43.9272 24.6854 43.5855 24.7598 43.2598C24.8342 42.9322 25.091 42.6769 25.4187 42.5994L32.1445 41.0093L34.6403 34.5994C34.7625 34.2877 35.0513 34.0694 35.3878 34.0394C35.7244 34.0095 36.0468 34.1715 36.2221 34.4585L39.8233 40.326L46.728 40.7046C47.0645 40.7222 47.3621 40.93 47.4932 41.2382C47.626 41.5464 47.5711 41.9021 47.3515 42.1574L42.8505 47.3751L44.6218 54.0192C44.7086 54.3432 44.6024 54.6883 44.3473 54.9085C44.094 55.1286 43.7362 55.1867 43.4244 55.0581L37.0423 52.415L31.234 56.1429C31.0888 56.2362 30.9205 56.2838 30.754 56.2838V56.282ZM27.5762 43.9008L31.9071 47.4068C32.1339 47.5899 32.2543 47.8717 32.2313 48.1605L31.7814 53.6952L36.4737 50.6839C36.7181 50.5272 37.0246 50.499 37.2938 50.6117L42.4502 52.7478L41.0189 47.3804C40.9445 47.1004 41.0136 46.801 41.2031 46.5809L44.8397 42.367L39.2635 42.0606C38.973 42.0447 38.7073 41.888 38.5568 41.6397L35.6482 36.8992L33.6324 42.0782C33.5279 42.3476 33.2959 42.5501 33.0107 42.617L27.5762 43.9025V43.9008Z" fill="black"/>
<path d="M30.3271 30.8169C29.7142 30.6214 29.1899 30.2904 28.7524 29.8237C28.3149 29.3553 28.0261 28.8006 27.8862 28.1561C27.7445 27.5116 27.7764 26.8882 27.9765 26.2807C28.1785 25.6749 28.5168 25.1572 28.9933 24.7257C29.4698 24.2961 30.0366 24.009 30.6938 23.8664C31.3509 23.7238 31.9869 23.7502 32.5997 23.9456C33.2126 24.1411 33.7369 24.4722 34.1745 24.9388C34.612 25.4072 34.9007 25.9619 35.0406 26.6064C35.1824 27.2509 35.1505 27.8761 34.9503 28.4819C34.7484 29.0876 34.41 29.6053 33.9336 30.0368C33.4571 30.4682 32.8902 30.7535 32.2331 30.8961C31.5759 31.0388 30.94 31.0123 30.3271 30.8169ZM32.5023 28.0152C32.6794 27.7475 32.7326 27.4499 32.6617 27.1224C32.5909 26.7966 32.4173 26.5466 32.1445 26.3758C31.8717 26.2049 31.56 26.1574 31.2128 26.2331C30.8744 26.3071 30.6176 26.4779 30.4405 26.7456C30.2633 27.0132 30.2102 27.3108 30.281 27.6384C30.3519 27.9659 30.5255 28.2142 30.7983 28.385C31.0711 28.5558 31.3775 28.6051 31.7158 28.5312C32.063 28.4554 32.3252 28.2846 32.5023 28.017V28.0152Z" fill="black"/>
<path d="M38.4044 28.9291C37.7915 28.7337 37.2672 28.4026 36.8297 27.936C36.3922 27.4693 36.1034 26.9128 35.9635 26.2683C35.8218 25.6238 35.8519 25.0005 36.0538 24.3929C36.2558 23.7872 36.5941 23.2694 37.0706 22.838C37.5471 22.4083 38.1121 22.1213 38.7711 21.9787C39.4283 21.836 40.0642 21.8624 40.677 22.0579C41.2899 22.2534 41.8142 22.5844 42.2518 23.0511C42.6875 23.5195 42.978 24.0742 43.118 24.7187C43.2597 25.3632 43.2278 25.9883 43.0276 26.5941C42.8257 27.1999 42.4874 27.7176 42.0109 28.149C41.5344 28.5805 40.9675 28.8657 40.3104 29.0084C39.6532 29.151 39.0173 29.1246 38.4044 28.9291ZM40.5796 26.1275C40.7568 25.8598 40.8099 25.5622 40.7373 25.2347C40.6664 24.9089 40.4928 24.6588 40.22 24.488C39.9473 24.3172 39.6355 24.2697 39.2883 24.3454C38.95 24.4193 38.6931 24.5902 38.516 24.8578C38.3389 25.1255 38.2857 25.4231 38.3566 25.7506C38.4274 26.0782 38.601 26.3265 38.8738 26.4973C39.1466 26.6681 39.4531 26.7174 39.7914 26.6434C40.1386 26.5677 40.4007 26.3969 40.5779 26.1292L40.5796 26.1275Z" fill="black"/>
<path d="M46.4321 27.2421C45.8193 27.0467 45.2949 26.7156 44.8574 26.249C44.4199 25.7805 44.1312 25.2258 43.9912 24.5813C43.8495 23.9368 43.8814 23.3135 44.0816 22.7059C44.2835 22.1002 44.6218 21.5824 45.0983 21.151C45.5748 20.7213 46.1416 20.4343 46.7988 20.2917C47.456 20.149 48.0919 20.1754 48.7048 20.3709C49.3177 20.5664 49.842 20.8974 50.2795 21.3641C50.7153 21.8325 51.0058 22.3872 51.1457 23.0317C51.2874 23.6762 51.2555 24.3014 51.0553 24.9071C50.8534 25.5129 50.5151 26.0306 50.0386 26.462C49.5621 26.8935 48.9953 27.1787 48.3381 27.3214C47.6809 27.464 47.045 27.4376 46.4321 27.2421ZM48.6074 24.4405C48.7845 24.1728 48.8376 23.8752 48.765 23.5477C48.6941 23.2219 48.5206 22.9718 48.2478 22.801C47.975 22.6302 47.6632 22.5827 47.316 22.6584C46.9777 22.7323 46.7209 22.9032 46.5437 23.1708C46.3666 23.4385 46.3135 23.7361 46.3843 24.0636C46.4552 24.3912 46.6288 24.6395 46.9016 24.8103C47.1743 24.9811 47.4808 25.0304 47.8191 24.9564C48.1663 24.8807 48.4284 24.7099 48.6056 24.4422L48.6074 24.4405Z" fill="black"/>
<path d="M26.8854 23.9632C27.1032 24.9142 26.9846 25.7189 26.5311 26.381C26.0759 27.0431 25.3443 27.4887 24.3311 27.7176C23.9184 27.8109 23.5021 27.8021 23.0823 27.6912C23.5588 29.3377 24.0087 31.0881 24.4338 32.9406L22.2728 33.578C21.8778 31.8541 21.3924 30.1882 20.8168 28.5805C20.2411 26.971 19.5113 25.1448 18.6292 23.1021L21.2171 22.0737L21.4686 22.7218C21.6369 23.1532 21.7857 23.5424 21.9132 23.8858C21.9947 24.1129 22.1081 24.2538 22.2533 24.3084C22.3986 24.363 22.6643 24.3471 23.0486 24.2608C23.5163 24.1552 23.9166 24.0108 24.2496 23.8277L23.4082 21.7691L25.8987 20.7636L26.7897 23.6181C26.8163 23.6903 26.8482 23.8065 26.8836 23.965L26.8854 23.9632Z" fill="black"/>
</g>
<defs>
<clipPath id="clip0_206_25461">
<rect width="48.8625" height="56.84" fill="white" transform="translate(11 7)"/>
</clipPath>
</defs>
</svg>
