<svg width="72" height="72" viewBox="0 0 72 72" fill="none" xmlns="http://www.w3.org/2000/svg">
<g clip-path="url(#clip0_140_7461)">
<path d="M46.0667 41.9744C46.0315 41.1265 45.8432 38.7665 45.7922 38.0132C45.5582 34.6464 46.1898 32.3043 47.3139 30.7994C48.4381 29.2946 51.244 27.181 53.6066 28.9857C54.773 29.8783 55.1987 31.6867 53.6664 34.1716C52.1342 36.6565 52.5493 39.3967 53.0103 41.8816C55.211 55.3576 45.662 62.2678 39.5488 63.396C31.0711 64.9598 18.7408 61.0504 18.0073 45.6143L18.0301 45.932L16.9025 29.698C16.7406 27.3684 17.4637 24.8585 19.7436 24.5997C21.7948 24.3658 23.0122 26.9186 23.1741 29.2482L23.8443 38.8754L23.2919 30.9208L22.4 18.0893C22.2329 15.6829 23.299 13.0498 25.7443 12.8142C28.2441 12.5732 29.5301 15.1599 29.6972 17.5662L30.7492 32.6524L29.3946 13.1819C29.2275 10.7756 30.6648 8.10143 32.7389 7.90685C35.1965 7.67835 36.5247 10.2525 36.6918 12.6589L38.0464 32.1294L37.1475 19.1211C36.9803 16.7147 38.0535 14.0245 40.4917 13.846C43.0848 13.6568 44.2775 16.1917 44.4447 18.598L46.0702 41.9744H46.0667Z" fill="#FFE1BD"/>
<path d="M35.9389 64.6207C31.4916 64.6207 27.1763 63.1944 23.9024 60.5542C19.7788 57.2303 17.4373 52.0819 17.1312 45.6679L16.0246 29.7606C15.7889 26.3635 17.2103 23.9892 19.6451 23.7125C20.4772 23.6179 21.2741 23.8553 21.9549 24.3998L21.5204 18.1501C21.3199 15.2742 22.678 12.2109 25.6581 11.9235C26.7136 11.8217 27.6952 12.1216 28.4992 12.7929C28.5045 10.1562 30.1212 7.25179 32.6544 7.01437C33.7205 6.9144 34.7127 7.23394 35.5272 7.9355C36.669 8.92089 37.4307 10.6614 37.5662 12.5929L37.6875 14.3388C38.3631 13.5622 39.2743 13.0374 40.4249 12.9535C41.5402 12.8714 42.5588 13.2052 43.368 13.9157C44.4711 14.8868 45.1818 16.5684 45.319 18.5321L46.1792 30.9102C46.3129 30.6817 46.459 30.4657 46.6138 30.2586C48.037 28.3557 51.3372 26.1332 54.1379 28.2718C55.5189 29.3268 56.3176 31.5564 54.4141 34.6447C53.1 36.7762 53.3938 39.1076 53.8776 41.7174C53.8776 41.7246 53.8793 41.7299 53.8811 41.7371C55.1618 49.581 52.5212 54.8221 50.0812 57.8372C46.9058 61.7592 42.6415 63.7353 39.7106 64.2762C38.4581 64.5065 37.195 64.6207 35.9424 64.6207H35.9389ZM18.9097 45.9785C19.2651 51.7535 21.3128 56.186 24.9966 59.1564C29.4755 62.7678 35.3707 63.2605 39.3922 62.5196C42.017 62.0359 45.845 60.2543 48.7178 56.7054C50.9274 53.976 53.3128 49.2186 52.143 42.0405C51.6117 39.17 51.2739 36.3727 52.9188 33.7004C53.9989 31.9474 54.0588 30.4514 53.0754 29.7017C51.0822 28.1789 48.6914 30.4318 48.0123 31.3422C46.9322 32.7882 46.466 35.0731 46.6665 37.9526C46.6806 38.1579 46.7053 38.4828 46.7334 38.8648C46.8108 39.8966 46.9164 41.3086 46.9427 41.9406C46.9621 42.4279 46.5927 42.8421 46.1124 42.8688C45.6321 42.8956 45.2187 42.5279 45.1853 42.0405L43.5598 18.6642C43.4578 17.1914 42.9529 15.924 42.2122 15.2706C41.7513 14.8654 41.2077 14.6905 40.548 14.7387C38.7184 14.8725 37.8793 17.0647 38.0183 19.0605L38.9172 32.0705C38.9507 32.5615 38.5865 32.9881 38.101 33.0238C37.6172 33.0577 37.1967 32.6882 37.1615 32.1955V32.1884L35.8069 12.725C35.7067 11.2844 35.1613 9.97234 34.3837 9.30113C33.9264 8.90661 33.4127 8.74238 32.811 8.79772C31.3561 8.93339 30.1194 11.0345 30.2637 13.1213L31.6183 32.5918C31.6517 33.0827 31.2875 33.5094 30.802 33.5451C30.3182 33.5808 29.896 33.2095 29.8626 32.7186L28.8106 17.6324C28.7085 16.1739 28.1685 14.86 27.4014 14.1995C26.9458 13.8086 26.4286 13.6479 25.8182 13.7068C23.7405 13.9068 23.1547 16.4024 23.2673 18.0304L24.0431 29.1822C24.0431 29.1822 24.0431 29.1876 24.0431 29.1911L24.7134 38.8184C24.7468 39.3093 24.3826 39.7377 23.8971 39.7716C23.4116 39.8055 22.9911 39.436 22.9577 38.9433L22.2874 29.3089C22.1836 27.8487 21.626 26.4563 20.8959 25.8386C20.5669 25.5602 20.2186 25.4477 19.8316 25.4905C18.1093 25.6869 17.6449 27.8469 17.7698 29.6392L18.8763 45.5537C18.8763 45.5537 18.8763 45.5555 18.8763 45.5573L18.8992 45.875C18.9009 45.9107 18.9027 45.9464 18.8992 45.9821L18.9097 45.9785Z" fill="black"/>
<path d="M35.7348 70.9936L32.38 66.529L27.5527 69.5316L31.9947 43.9309L40.1786 45.3929L35.7348 70.9936Z" fill="#FF5C35"/>
<path d="M35.7348 71.8862C35.4639 71.8862 35.2035 71.7594 35.0347 71.5345L32.1601 67.7107L28.0101 70.292C27.7146 70.4759 27.3416 70.467 27.0549 70.2688C26.7681 70.0707 26.6239 69.7226 26.6837 69.3762L31.1274 43.7756C31.2119 43.29 31.6675 42.9651 32.146 43.0508L40.3299 44.5129C40.5603 44.5539 40.7644 44.686 40.8981 44.8806C41.0318 45.0752 41.0846 45.3144 41.0441 45.5482L36.6004 71.1489C36.5405 71.4988 36.2819 71.7773 35.9424 71.8612C35.8738 71.879 35.8034 71.8862 35.7348 71.8862ZM32.3782 65.6364C32.6439 65.6364 32.906 65.7596 33.0784 65.9881L35.2176 68.8336L39.16 46.1177L32.709 44.9645L28.7578 67.7357L31.9209 65.7685C32.0633 65.6792 32.2234 65.6364 32.38 65.6364H32.3782Z" fill="black"/>
<path d="M49.0591 67.102L43.4155 64.8259L41.4698 70.5366L31.0377 46.7943L38.6269 43.3597L49.0591 67.102Z" fill="#FF5C35"/>
<path d="M41.4698 71.4292C41.1233 71.4292 40.8084 71.2221 40.6659 70.9007L30.2338 47.1584C30.1388 46.9424 30.1317 46.6961 30.2162 46.4747C30.2989 46.2534 30.466 46.0749 30.6788 45.9785L38.2681 42.5456C38.7114 42.3457 39.2321 42.5456 39.4292 42.9973L49.8613 66.7396C50.0073 67.0716 49.9404 67.459 49.6924 67.7214C49.4443 67.9838 49.0661 68.0677 48.7336 67.9321L43.9468 66.0006L42.3019 70.8276C42.1841 71.1739 41.8692 71.4113 41.5085 71.4274C41.4962 71.4274 41.4822 71.4274 41.4698 71.4274V71.4292ZM32.1988 47.2459L41.366 68.1088L42.5852 64.535C42.6643 64.3047 42.8315 64.1172 43.0496 64.0155C43.2678 63.9137 43.5176 63.9066 43.741 63.9976L47.3755 65.4632L38.1819 44.5396L32.2006 47.2459H32.1988Z" fill="black"/>
<path d="M39.3887 56.6143L36.0691 55.8396L32.9359 57.1909L30.7 54.5846L27.3821 53.8099L27.083 50.3681L24.8471 47.7618L26.5992 44.7985L26.3002 41.3567L29.4333 40.0054L31.1855 37.0421L34.5034 37.8168L37.6365 36.4637L39.8725 39.07L43.1921 39.8465L43.4912 43.2883L45.7271 45.8946L43.9749 48.8579L44.274 52.2996L41.1409 53.651L39.3887 56.6143Z" fill="#FFD400"/>
<path d="M32.9359 58.0835C32.6861 58.0835 32.4433 57.9764 32.2727 57.7764L30.225 55.3897L27.1851 54.6792C26.8139 54.5918 26.5394 54.2722 26.506 53.8884L26.2316 50.7359L24.1838 48.3491C23.934 48.0582 23.8971 47.6351 24.0924 47.303L25.6968 44.5878L25.4223 41.4353C25.3889 41.0497 25.6035 40.6873 25.9536 40.5356L28.8246 39.2967L30.429 36.5815C30.6243 36.2495 31.0096 36.0835 31.3808 36.1709L34.4207 36.8814L37.2917 35.6425C37.6418 35.4908 38.0499 35.5854 38.2997 35.8782L40.3475 38.2649L43.3874 38.9754C43.7586 39.0628 44.033 39.3824 44.0664 39.7662L44.3409 42.9187L46.3886 45.3055C46.6384 45.5964 46.6753 46.0195 46.4801 46.3516L44.8757 49.0668L45.1501 52.2193C45.1835 52.6049 44.9689 52.9673 44.6188 53.119L41.7478 54.3579L40.1434 57.0731C39.9481 57.4051 39.5629 57.5711 39.1917 57.4837L36.1517 56.7732L33.2807 58.0121C33.1699 58.0603 33.052 58.0835 32.9359 58.0835ZM28.2019 53.0851L30.897 53.7153C31.0782 53.7581 31.2418 53.8563 31.3632 53.9991L33.1787 56.1163L35.7243 55.0184C35.8949 54.9452 36.0849 54.9274 36.2661 54.9702L38.9612 55.6004L40.3844 53.194C40.4794 53.0315 40.6237 52.9048 40.7943 52.8316L43.3399 51.7337L43.0971 48.9382C43.0813 48.7508 43.1235 48.5616 43.2185 48.4009L44.6417 45.9945L42.8262 43.8774C42.7048 43.7346 42.6292 43.5578 42.6133 43.3704L42.3706 40.5749L39.6754 39.9447C39.4942 39.9019 39.3306 39.8037 39.2092 39.6609L37.3937 37.5437L34.8482 38.6416C34.6775 38.7147 34.4875 38.7326 34.3063 38.6898L31.6112 38.0596L30.188 40.466C30.093 40.6284 29.9488 40.7552 29.7781 40.8283L27.2325 41.9262L27.4753 44.7217C27.4912 44.9092 27.4489 45.0984 27.3539 45.2591L25.9307 47.6654L27.7462 49.7826C27.8676 49.9254 27.9433 50.1021 27.9591 50.2896L28.2019 53.0851Z" fill="black"/>
<path d="M34.9678 42.3243L36.6355 45.0966L39.8303 45.2751L37.7474 47.7404L38.5672 50.8787L35.6134 49.6308L32.9236 51.391L33.1822 48.1545L30.7 46.1052L33.8138 45.3537L34.9678 42.3243Z" fill="#FF5C35"/>
<path d="M32.9236 52.2836C32.767 52.2836 32.6105 52.2407 32.4715 52.1568C32.1847 51.9819 32.0194 51.657 32.0458 51.3196L32.2657 48.5508L30.1423 46.796C29.8819 46.5818 29.7658 46.2355 29.8397 45.9053C29.9136 45.5732 30.1687 45.3144 30.4941 45.2358L33.1576 44.5932L34.1463 42.003C34.2676 41.687 34.5544 41.4656 34.8886 41.4353C35.2211 41.4049 35.5431 41.5692 35.7172 41.8601L37.1422 44.2326L39.876 44.3861C40.2103 44.404 40.5058 44.6146 40.636 44.927C40.7679 45.2394 40.7134 45.6 40.4952 45.8589L38.7132 47.9671L39.4151 50.6519C39.5013 50.9804 39.3957 51.3303 39.1424 51.5534C38.8891 51.7766 38.5355 51.8355 38.2259 51.7052L35.6979 50.6359L33.3968 52.1425C33.2526 52.2371 33.0855 52.2853 32.9201 52.2853L32.9236 52.2836ZM32.6369 46.5533L33.7364 47.4619C33.9615 47.6476 34.0812 47.9332 34.0583 48.2259L33.9439 49.6594L35.1349 48.8793C35.3777 48.7204 35.6838 48.6919 35.9512 48.8061L37.2601 49.3595L36.8977 47.9689C36.8238 47.685 36.8924 47.3816 37.0806 47.1584L38.0042 46.0659L36.588 45.9874C36.2995 45.9713 36.0356 45.8124 35.8861 45.5607L35.1472 44.3326L34.6353 45.675C34.5315 45.9481 34.2993 46.1534 34.0178 46.2212L32.6386 46.5551L32.6369 46.5533Z" fill="#FF5C35"/>
</g>
<defs>
<clipPath id="clip0_140_7461">
<rect width="39.54" height="64.8862" fill="white" transform="translate(16 7)"/>
</clipPath>
</defs>
</svg>
