<svg width="40" height="40" viewBox="0 0 40 40" fill="none" xmlns="http://www.w3.org/2000/svg">
<path d="M36.6667 36.666L27.8333 31.666H15C12.1667 31.666 10 29.4994 10 26.666V16.666C10 13.8327 12.1667 11.666 15 11.666H31.6667C34.5 11.666 36.6667 13.8327 36.6667 16.666V36.666Z" fill="#CCCCCC"/>
<path d="M3.33203 30V10C3.33203 7.16667 5.4987 5 8.33203 5H24.9987C27.832 5 29.9987 7.16667 29.9987 10V20C29.9987 22.8333 27.832 25 24.9987 25H12.1654L3.33203 30ZM8.33203 8.33333C7.33203 8.33333 6.66536 9 6.66536 10V24.3333L11.1654 21.6667H24.9987C25.9987 21.6667 26.6654 21 26.6654 20V10C26.6654 9 25.9987 8.33333 24.9987 8.33333H8.33203Z" fill="#7F7F7F"/>
</svg>
