<svg width="40" height="40" viewBox="0 0 40 40" fill="none" xmlns="http://www.w3.org/2000/svg">
<g clip-path="url(#clip0_7974_182379)">
<path d="M18.3307 28.3333C24.7741 28.3333 29.9974 23.11 29.9974 16.6667C29.9974 10.2233 24.7741 5 18.3307 5C11.8874 5 6.66406 10.2233 6.66406 16.6667C6.66406 23.11 11.8874 28.3333 18.3307 28.3333Z" fill="#E5E5E5"/>
<path d="M28.3307 16.668H11.6641V35.0013H23.3307C26.1641 35.0013 28.3307 32.8346 28.3307 30.0013V16.668Z" fill="#E5E5E5"/>
<path d="M29.9974 16.668L32.4974 22.668C32.9974 23.8346 32.1641 25.0013 30.9974 25.0013H26.6641L29.9974 16.668Z" fill="#E5E5E5"/>
<path d="M18.3307 26.6654C14.6641 26.6654 11.6641 23.6654 11.6641 19.9987C11.6641 16.332 14.6641 13.332 18.3307 13.332C21.9974 13.332 24.9974 16.332 24.9974 19.9987C24.9974 23.6654 21.9974 26.6654 18.3307 26.6654ZM18.3307 16.6654C16.4974 16.6654 14.9974 18.1654 14.9974 19.9987C14.9974 21.832 16.4974 23.332 18.3307 23.332C20.1641 23.332 21.6641 21.832 21.6641 19.9987C21.6641 18.1654 20.1641 16.6654 18.3307 16.6654Z" fill="#7F7F7F"/>
<path d="M18.3307 16.6654C17.3307 16.6654 16.6641 15.9987 16.6641 14.9987V4.9987C16.6641 3.9987 17.3307 3.33203 18.3307 3.33203C19.3307 3.33203 19.9974 3.9987 19.9974 4.9987V14.9987C19.9974 15.9987 19.3307 16.6654 18.3307 16.6654Z" fill="#7F7F7F"/>
<path d="M30.0026 33.3333C29.5026 33.3333 29.1693 33.1667 28.8359 32.8333L21.3359 25.3333C20.6693 24.6667 20.6693 23.6667 21.3359 23C22.0026 22.3333 23.0026 22.3333 23.6693 23L31.1693 30.5C31.8359 31.1667 31.8359 32.1667 31.1693 32.8333C30.8359 33.1667 30.5026 33.3333 30.0026 33.3333Z" fill="#7F7F7F"/>
</g>
<defs>
<clipPath id="clip0_7974_182379">
<rect width="40" height="40" fill="white"/>
</clipPath>
</defs>
</svg>
