<svg width="38" height="38" viewBox="0 0 38 38" fill="none" xmlns="http://www.w3.org/2000/svg">
<path d="M15.318 15.682C15.0251 15.3891 14.5503 15.3891 14.2574 15.682C13.9645 15.9749 13.9645 16.4497 14.2574 16.7426L15.318 15.682ZM21.682 24.1673C21.9749 24.4602 22.4497 24.4602 22.7426 24.1673C23.0355 23.8744 23.0355 23.3995 22.7426 23.1066L21.682 24.1673ZM14.2574 23.1066C13.9645 23.3995 13.9645 23.8744 14.2574 24.1673C14.5503 24.4602 15.0251 24.4602 15.318 24.1673L14.2574 23.1066ZM22.7426 16.7426C23.0355 16.4497 23.0355 15.9749 22.7426 15.682C22.4497 15.3891 21.9749 15.3891 21.682 15.682L22.7426 16.7426ZM14.2574 16.7426L21.682 24.1673L22.7426 23.1066L15.318 15.682L14.2574 16.7426ZM15.318 24.1673L22.7426 16.7426L21.682 15.682L14.2574 23.1066L15.318 24.1673ZM35.25 19.5C35.25 28.7508 27.7508 36.25 18.5 36.25V37.75C28.5792 37.75 36.75 29.5792 36.75 19.5H35.25ZM18.5 36.25C9.24923 36.25 1.75 28.7508 1.75 19.5H0.25C0.25 29.5792 8.4208 37.75 18.5 37.75V36.25ZM1.75 19.5C1.75 10.2492 9.24923 2.75 18.5 2.75V1.25C8.4208 1.25 0.25 9.4208 0.25 19.5H1.75ZM18.5 2.75C27.7508 2.75 35.25 10.2492 35.25 19.5H36.75C36.75 9.4208 28.5792 1.25 18.5 1.25V2.75Z" fill="#DC5151"/>
</svg>
